<svg width="24" height="24" viewBox="0 0 24 24" fill="none" xmlns="http://www.w3.org/2000/svg">
<path d="M2 6.47762C2 5.1008 2 4.4124 2.22168 3.86821C2.52645 3.12007 3.12007 2.52645 3.86821 2.22168C4.4124 2 5.1008 2 6.47762 2C7.85443 2 8.54284 2 9.08702 2.22168C9.83517 2.52645 10.4288 3.12007 10.7336 3.86821C10.9552 4.4124 10.9552 5.1008 10.9552 6.47762C10.9552 7.85443 10.9552 8.54284 10.7336 9.08702C10.4288 9.83517 9.83517 10.4288 9.08702 10.7336C8.54284 10.9552 7.85443 10.9552 6.47762 10.9552C5.1008 10.9552 4.4124 10.9552 3.86821 10.7336C3.12007 10.4288 2.52645 9.83517 2.22168 9.08702C2 8.54284 2 7.85443 2 6.47762Z" fill="#0067F3"/>
<path d="M2 17.5225C2 16.1457 2 15.4573 2.22168 14.9131C2.52645 14.165 3.12007 13.5713 3.86821 13.2666C4.4124 13.0449 5.1008 13.0449 6.47762 13.0449C7.85443 13.0449 8.54284 13.0449 9.08702 13.2666C9.83517 13.5713 10.4288 14.165 10.7336 14.9131C10.9552 15.4573 10.9552 16.1457 10.9552 17.5225C10.9552 18.8993 10.9552 19.5877 10.7336 20.1319C10.4288 20.8801 9.83517 21.4737 9.08702 21.7784C8.54284 22.0001 7.85443 22.0001 6.47762 22.0001C5.1008 22.0001 4.4124 22.0001 3.86821 21.7784C3.12007 21.4737 2.52645 20.8801 2.22168 20.1319C2 19.5877 2 18.8993 2 17.5225Z" fill="#0067F3"/>
<path d="M13.0449 17.5225C13.0449 16.1457 13.0449 15.4573 13.2666 14.9131C13.5714 14.165 14.165 13.5713 14.9131 13.2666C15.4573 13.0449 16.1457 13.0449 17.5225 13.0449C18.8994 13.0449 19.5878 13.0449 20.1319 13.2666C20.8801 13.5713 21.4737 14.165 21.7785 14.9131C22.0002 15.4573 22.0002 16.1457 22.0002 17.5225C22.0002 18.8993 22.0002 19.5877 21.7785 20.1319C21.4737 20.8801 20.8801 21.4737 20.1319 21.7784C19.5878 22.0001 18.8994 22.0001 17.5225 22.0001C16.1457 22.0001 15.4573 22.0001 14.9131 21.7784C14.165 21.4737 13.5714 20.8801 13.2666 20.1319C13.0449 19.5877 13.0449 18.8993 13.0449 17.5225Z" fill="#0067F3"/>
<path fill-rule="evenodd" clip-rule="evenodd" d="M16.7725 9.47754C16.7725 9.89175 17.1082 10.2276 17.5225 10.2276C17.9367 10.2276 18.2725 9.89175 18.2725 9.47754V7.22754H20.5225C20.9367 7.22754 21.2725 6.89175 21.2725 6.47754C21.2725 6.06333 20.9367 5.72754 20.5225 5.72754H18.2725V3.47754C18.2725 3.06333 17.9367 2.72754 17.5225 2.72754C17.1082 2.72754 16.7725 3.06333 16.7725 3.47754V5.72754H14.5225C14.1082 5.72754 13.7725 6.06333 13.7725 6.47754C13.7725 6.89175 14.1082 7.22754 14.5225 7.22754H16.7725V9.47754Z" fill="#0067F3"/>
</svg>
